# xmcd CD database file
#
# Track frame offsets:
#	150
#	15065
#	27087
#	40867
#	52552
#	64650
#	77865
#	91627
#	106185
#	119705
#	133272
#	147195
#	161745
#	175525
#	189002
#	204020
#	217345
#	230970
#	242782
#	255182
#	267235
#	281262
#
# Disc length: 3913 seconds
#
# Revision: 1
# Processed by: cddbd v1.5.2PL0 Copyright (c) Steve Scherf et al.
# Submitted via: CDex 1.51
#
DISCID=1c0f4716
DTITLE=Various Artist - Alto Sax Story  {1937-1950}
DYEAR=2001
DGENRE=Jazz
TTITLE0=Things Ain't What They Used To Be - Duke Ellington and His Orchestra - Johnny Hodges  [1943]
TTITLE1=Hop Skip and Jump - Duke Ellington and His Orchestra - Johnny Hodges  [1943]
TTITLE2=A Little Taste - Johnny Hodges and His Orchestra  [1947]
TTITLE3=Blues In My Heart - Benny Carter and His Orchestra  [1937]
TTITLE4=Smack - The Chocolate Dandies - Benny Carter  [1940]
TTITLE5=Uptown Blues - Jimmy Lunceford and His Orchestra - Willie Smith  [1939]
TTITLE6=I Can't Beleve That You're In Love With Me - The Keynoter - Willie Smith  [1946]
TTITLE7=Shady Side Of The Street - Rex Stewart and His Orchestra - Earl Bostic  [1945]
TTITLE8=The Major And The Minor - Earl Bostic and His Orchestra  [1945]
TTITLE9=Margie - Jimmie Lunceford and His Orchestra - Ted Buckner  [1938]
TTITLE10=You Can Depend On Me - Joe Thomas and His Orchestra - Hilton Jefferson  [1946]
TTITLE11=Bear Mash Blues - Erskine Hawkins and His Orchestra - Bill Johnson  [1942]
TTITLE12=Texas and Pacific - Louis Jordan and His Orchestra  [1946]
TTITLE13=Hootie Blues - Jay McShann and His Orchestra - Charlie Parker  [1941]
TTITLE14=9-20 Special - Count Basie and His Orchestra - Jimmy Powell  [1944]
TTITLE15=Little White Lies - Marshall Royal and Maxwell Davis - Marshall Royal  [1947]
TTITLE16=Cinder Bottom - Bobby Smith and His Orchestra  [1950]
TTITLE17=Moten's Swing - Eddie Durham and His Band - Buster Smith  [1940]
TTITLE18=The Jitters - Count Basie and His Orchestra - Tab Smith  [1941]
TTITLE19=Riffin' The Blues - Lil Armstrong and Her Dixielanders - Don Stovall  [1940]
TTITLE20=King For A Day - Eddie 'Cleanhead' Vinson and His Orchestra  [1947]
TTITLE21=Pound Cake - Count Basie and His Orchestra - Earl Warren  [1939]
EXTD=YEAR: 2001
EXTT0=
EXTT1=
EXTT2=
EXTT3=
EXTT4=
EXTT5=
EXTT6=
EXTT7=
EXTT8=
EXTT9=
EXTT10=
EXTT11=
EXTT12=
EXTT13=
EXTT14=
EXTT15=
EXTT16=
EXTT17=
EXTT18=
EXTT19=
EXTT20=
EXTT21=
PLAYORDER=
